<?xml version="1.0" encoding="UTF-8" standalone="no"?>
<svg width="32px" height="32px" viewBox="0 0 32 32" version="1.1" xmlns="http://www.w3.org/2000/svg" xmlns:xlink="http://www.w3.org/1999/xlink" xmlns:sketch="http://www.bohemiancoding.com/sketch/ns">
    <defs>
        <linearGradient x1="50%" y1="0%" x2="50%" y2="100%" id="linearGradient-1">
            <stop stop-color="#FFA300" offset="0%"></stop>
            <stop stop-color="#FF5050" offset="100%"></stop>
        </linearGradient>
    </defs>
    <g id="Views" stroke="none" stroke-width="1" fill="none" fill-rule="evenodd" sketch:type="MSPage">
        <g id="Activity-(First-View)-v1.1a" sketch:type="MSArtboardGroup" transform="translate(-88.000000, -424.000000)" fill="url(#linearGradient-1)">
            <g id="content:-content-projects-search" sketch:type="MSLayerGroup" transform="translate(-301.000000, 144.000000)">
                <g id="list:-list-body" transform="translate(0.000000, 120.000000)" sketch:type="MSShapeGroup">
                    <g id="featured" transform="translate(389.000000, 160.000000)">
                        <g id="star-vector">
                            <path d="M16,8 L18.5,13.6774194 L24,14.1935484 L19.5,17.8064516 L21,24 L16,20.9032258 L11,24 L12.5,17.8064516 L8,14.1935484 L13.5,13.6774194" id="Shape"></path>
                            <path d="M0,16 C0,24.836556 7.16150109,32 16,32 C24.836556,32 32,24.8384989 32,16 C32,7.163444 24.8384989,0 16,0 C7.163444,0 0,7.16150109 0,16 Z M31,16 C31,24.2855244 24.2849611,31 16,31 C7.71447564,31 1,24.2849611 1,16 C1,7.71447564 7.71503889,1 16,1 C24.2855244,1 31,7.71503889 31,16 Z" id="avatar"></path>
                        </g>
                    </g>
                </g>
            </g>
        </g>
    </g>
</svg>