<?xml version="1.0" encoding="UTF-8" standalone="no"?>
<svg width="74px" height="74px" viewBox="0 0 74 74" version="1.1" xmlns="http://www.w3.org/2000/svg" xmlns:xlink="http://www.w3.org/1999/xlink" xmlns:sketch="http://www.bohemiancoding.com/sketch/ns">
    <!-- Generator: Sketch 3.0.3 (7891) - http://www.bohemiancoding.com/sketch -->
    <title>vector</title>
    <desc>Created with Sketch.</desc>
    <defs></defs>
    <g id="Page-1" stroke="none" stroke-width="1" fill="none" fill-rule="evenodd" sketch:type="MSPage">
        <g id="meeet-co-lander-1.4f" sketch:type="MSArtboardGroup" transform="translate(-483.000000, -128.000000)" fill="#FFFFFF">
            <g id="1-landing" sketch:type="MSLayerGroup">
                <g id="m-logo" transform="translate(484.000000, 128.000000)" sketch:type="MSShapeGroup">
                    <g id="vector">
                        <path d="M23,54 L25,54 L25,30 C25.2191781,27.3960546 25.0606654,23.6267071 25,21 L25,21 L28,29 L35,50 L38,50 L45,29 L48,21 L48,21 C47.7808219,23.6267071 47.6223092,27.3960546 48,30 L48,54 L50,54 L50,18 L47,18 L39,39 L37,47 L36,47 L34,39 L26,18 L23,18 L23,54 Z" id="M"></path>
                        <path d="M72,36 C72,16.117749 55.882251,0 36,0 C16.117749,0 0,16.117749 0,36 C0,55.882251 16.117749,72 36,72 C55.882251,72 72,55.882251 72,36 Z M2,36 C2,17.2223185 17.2223185,2 36,2 C54.7776815,2 70,17.2223185 70,36 C70,54.7776815 54.7776815,70 36,70 C17.2223185,70 2,54.7776815 2,36 Z" id="Oval-1"></path>
                    </g>
                </g>
            </g>
        </g>
    </g>
</svg>