<?xml version="1.0" encoding="UTF-8" standalone="no"?>
<svg width="32px" height="32px" viewBox="0 0 32 32" version="1.1" xmlns="http://www.w3.org/2000/svg" xmlns:xlink="http://www.w3.org/1999/xlink" xmlns:sketch="http://www.bohemiancoding.com/sketch/ns">
    <!-- Generator: Sketch 3.0.3 (7891) - http://www.bohemiancoding.com/sketch -->
    <title>heart vector</title>
    <desc>Created with Sketch.</desc>
    <defs>
        <linearGradient x1="50%" y1="100%" x2="50%" y2="0%" id="linearGradient-1">
            <stop stop-color="#FF4C8E" offset="0%"></stop>
            <stop stop-color="#FF4CDF" offset="100%"></stop>
        </linearGradient>
        <linearGradient x1="50%" y1="100%" x2="50%" y2="0%" id="linearGradient-2">
            <stop stop-color="#FF4196" offset="0%"></stop>
            <stop stop-color="#FF69C4" offset="100%"></stop>
        </linearGradient>
    </defs>
    <g id="Views" stroke="none" stroke-width="1" fill="none" fill-rule="evenodd" sketch:type="MSPage">
        <g id="Activity-(First-View)-v1.1a" sketch:type="MSArtboardGroup" transform="translate(-88.000000, -584.000000)">
            <g id="content:-content-projects-search" sketch:type="MSLayerGroup" transform="translate(-301.000000, 144.000000)">
                <g id="list:-list-body" transform="translate(0.000000, 120.000000)" sketch:type="MSShapeGroup">
                    <g id="liked-alt" transform="translate(389.000000, 320.000000)">
                        <g id="heart-vector">
                            <path d="M12,10 C14,10 15.5,11.5 16,12 C16.5,11.5 18,10 20,10 C23,10 24,12 24,14 C24,18 17,23.5 16,24 C15,23.5 8,18 8,14 C8,12 9.5,10 12,10 Z" id="Shape" fill="url(#linearGradient-1)"></path>
                            <path d="M0,16 C0,24.836556 7.16150109,32 16,32 C24.836556,32 32,24.8384989 32,16 C32,7.163444 24.8384989,0 16,0 C7.163444,0 0,7.16150109 0,16 Z M31,16 C31,24.2855244 24.2849611,31 16,31 C7.71447564,31 1,24.2849611 1,16 C1,7.71447564 7.71503889,1 16,1 C24.2855244,1 31,7.71503889 31,16 Z" id="avatar" fill="url(#linearGradient-2)"></path>
                        </g>
                    </g>
                </g>
            </g>
        </g>
    </g>
</svg>