<?xml version="1.0" encoding="UTF-8" standalone="no"?>
<svg width="96px" height="96px" viewBox="0 0 96 96" version="1.1" xmlns="http://www.w3.org/2000/svg" xmlns:xlink="http://www.w3.org/1999/xlink" xmlns:sketch="http://www.bohemiancoding.com/sketch/ns">
    <!-- Generator: Sketch 3.0.3 (7891) - http://www.bohemiancoding.com/sketch -->
    <title>invite icon</title>
    <desc>Created with Sketch.</desc>
    <defs>
        <linearGradient x1="50%" y1="100%" x2="50%" y2="0%" id="linearGradient-1">
            <stop stop-color="#F1C1F5" offset="0%"></stop>
            <stop stop-color="#C6DEF5" offset="100%"></stop>
        </linearGradient>
    </defs>
    <g id="Views" stroke="none" stroke-width="1" fill="none" fill-rule="evenodd" sketch:type="MSPage">
        <g id="Invite-v1.1a" sketch:type="MSArtboardGroup" transform="translate(-432.000000, -132.000000)" fill="url(#linearGradient-1)">
            <g id="invite-icon" sketch:type="MSLayerGroup" transform="translate(432.000000, 132.000000)">
                <g id="vector" sketch:type="MSShapeGroup">
                    <path d="M96,48 C96,21.490332 74.509668,0 48,0 C21.490332,0 0,21.490332 0,48 C0,74.509668 21.490332,96 48,96 C74.509668,96 96,74.509668 96,48 Z M2,48 C2,22.5949015 22.5949015,2 48,2 C73.4050985,2 94,22.5949015 94,48 C94,73.4050985 73.4050985,94 48,94 C22.5949015,94 2,73.4050985 2,48 Z M58.5,72.0588235 L60,72.0588235 L60,25 L58.5,25 C58.5,25.8121835 57.8284271,26.4705882 57,26.4705882 C56.1715729,26.4705882 55.5,25.8121835 55.5,25 L54,25 C54,25.8121835 53.3284271,26.4705882 52.5,26.4705882 C51.6715729,26.4705882 51,25.8121835 51,25 L49.5,25 C49.5,25.8121835 48.8284271,26.4705882 48,26.4705882 C47.1715729,26.4705882 46.5,25.8121835 46.5,25 L45,25 C45,25.8121835 44.3284271,26.4705882 43.5,26.4705882 C42.6715729,26.4705882 42,25.8121835 42,25 L40.5,25 C40.5,25.8121835 39.8284271,26.4705882 39,26.4705882 C38.1715729,26.4705882 37.5,25.8121835 37.5,25 L36,25 L36,72.0588235 L37.5,72.0588235 C37.5,71.2466401 38.1715729,70.5882353 39,70.5882353 C39.8284271,70.5882353 40.5,71.2466401 40.5,72.0588235 L42,72.0588235 C42,71.2466401 42.6715729,70.5882353 43.5,70.5882353 C44.3284271,70.5882353 45,71.2466401 45,72.0588235 L46.5,72.0588235 C46.5,71.2466401 47.1715729,70.5882353 48,70.5882353 C48.8284271,70.5882353 49.5,71.2466401 49.5,72.0588235 L51,72.0588235 C51,71.2466401 51.6715729,70.5882353 52.5,70.5882353 C53.3284271,70.5882353 54,71.2466401 54,72.0588235 L55.5,72.0588235 C55.5,71.2466401 56.1715729,70.5882353 57,70.5882353 C57.8284271,70.5882353 58.5,71.2466401 58.5,72.0588235 L58.5,72.0588235 Z" id="ticket"></path>
                </g>
            </g>
        </g>
    </g>
</svg>